<svg xmlns="http://www.w3.org/2000/svg" width="141" height="31" fill="none" viewBox="0 0 141 31"><path fill="#FFFFFF" d="M41.3531 6.80557C42.2825 6.80557 43.0994 6.99569 43.8035 7.37593C44.5076 7.75617 45.0498 8.29836 45.4301 9.00251C45.8244 9.69257 46.0216 10.4883 46.0216 11.3896C46.0216 12.2768 45.8174 13.0584 45.409 13.7344C45.0146 14.4104 44.4513 14.9385 43.719 15.3187C43.0008 15.6849 42.1699 15.8679 41.2263 15.8679H38.2267C38.1562 15.8679 38.121 15.9031 38.121 15.9736V21.3603C38.121 21.4307 38.0929 21.4941 38.0365 21.5504C37.9943 21.5926 37.938 21.6138 37.8675 21.6138H35.396C35.3256 21.6138 35.2622 21.5926 35.2059 21.5504C35.1636 21.4941 35.1425 21.4307 35.1425 21.3603V7.05906C35.1425 6.98865 35.1636 6.93232 35.2059 6.89007C35.2622 6.83374 35.3256 6.80557 35.396 6.80557H41.3531ZM40.9095 13.4809C41.5573 13.4809 42.0783 13.2978 42.4727 12.9316C42.867 12.5514 43.0641 12.0585 43.0641 11.4529C43.0641 10.8333 42.867 10.3333 42.4727 9.95311C42.0783 9.57287 41.5573 9.38275 40.9095 9.38275H38.2267C38.1562 9.38275 38.121 9.41795 38.121 9.48837V13.3753C38.121 13.4457 38.1562 13.4809 38.2267 13.4809H40.9095ZM58.1191 9.12925C58.1191 9.19967 58.0909 9.26304 58.0346 9.31937C57.9923 9.36162 57.936 9.38275 57.8656 9.38275H50.9368C50.8664 9.38275 50.8312 9.41795 50.8312 9.48837V12.7626C50.8312 12.8331 50.8664 12.8683 50.9368 12.8683H55.4785C55.5489 12.8683 55.6053 12.8964 55.6475 12.9528C55.7038 12.995 55.732 13.0514 55.732 13.1218V15.1708C55.732 15.2412 55.7038 15.3046 55.6475 15.361C55.6053 15.4032 55.5489 15.4243 55.4785 15.4243H50.9368C50.8664 15.4243 50.8312 15.4595 50.8312 15.5299V18.9521C50.8312 19.0225 50.8664 19.0577 50.9368 19.0577H57.8656C57.936 19.0577 57.9923 19.0859 58.0346 19.1422C58.0909 19.1845 58.1191 19.2408 58.1191 19.3112V21.3603C58.1191 21.4307 58.0909 21.4941 58.0346 21.5504C57.9923 21.5926 57.936 21.6138 57.8656 21.6138H48.1061C48.0357 21.6138 47.9723 21.5926 47.916 21.5504C47.8737 21.4941 47.8526 21.4307 47.8526 21.3603V7.08019C47.8526 7.00977 47.8737 6.95344 47.916 6.91119C47.9723 6.85486 48.0357 6.8267 48.1061 6.8267H57.8656C57.936 6.8267 57.9923 6.85486 58.0346 6.91119C58.0909 6.95344 58.1191 7.00977 58.1191 7.08019V9.12925ZM60.4424 21.6138C60.372 21.6138 60.3086 21.5926 60.2523 21.5504C60.2101 21.4941 60.1889 21.4307 60.1889 21.3603V7.08019C60.1889 7.00977 60.2101 6.95344 60.2523 6.91119C60.3086 6.85486 60.372 6.8267 60.4424 6.8267H65.7235C66.7797 6.8267 67.7022 7.01682 68.4908 7.39705C69.2935 7.76321 69.9132 8.28428 70.3498 8.96026C70.7863 9.63624 71.0046 10.4178 71.0046 11.3051V17.1354C71.0046 18.0226 70.7863 18.8042 70.3498 19.4802C69.9132 20.1562 69.2935 20.6843 68.4908 21.0645C67.7022 21.4307 66.7797 21.6138 65.7235 21.6138H60.4424ZM63.1675 18.9521C63.1675 19.0225 63.2027 19.0577 63.2731 19.0577H65.8291C66.477 19.0577 66.998 18.8394 67.3923 18.4029C67.8008 17.9663 68.012 17.3818 68.0261 16.6495V11.7909C68.0261 11.0586 67.8219 10.4742 67.4135 10.0376C67.0191 9.60103 66.484 9.38275 65.808 9.38275H63.2731C63.2027 9.38275 63.1675 9.41795 63.1675 9.48837V18.9521ZM81.8431 21.6138C81.7022 21.6138 81.6107 21.5434 81.5685 21.4025L80.9347 19.3323C80.9066 19.276 80.8714 19.2478 80.8291 19.2478H75.6325C75.5903 19.2478 75.5551 19.276 75.5269 19.3323L74.9143 21.4025C74.872 21.5434 74.7805 21.6138 74.6397 21.6138H71.9569C71.8724 21.6138 71.809 21.5926 71.7667 21.5504C71.7245 21.4941 71.7175 21.4166 71.7456 21.318L76.3085 7.03794C76.3507 6.89711 76.4423 6.8267 76.5831 6.8267H79.8996C80.0405 6.8267 80.132 6.89711 80.1743 7.03794L84.7371 21.318C84.7512 21.3462 84.7582 21.3814 84.7582 21.4237C84.7582 21.5504 84.6808 21.6138 84.5259 21.6138H81.8431ZM76.2874 16.8185C76.2733 16.903 76.3014 16.9453 76.3719 16.9453H80.0898C80.1743 16.9453 80.2024 16.903 80.1743 16.8185L78.2731 10.5446C78.259 10.4883 78.2378 10.4671 78.2097 10.4812C78.1815 10.4812 78.1604 10.5023 78.1463 10.5446L76.2874 16.8185ZM86.8685 21.6138C86.7981 21.6138 86.7348 21.5926 86.6784 21.5504C86.6362 21.4941 86.615 21.4307 86.615 21.3603V7.08019C86.615 7.00977 86.6362 6.95344 86.6784 6.91119C86.7348 6.85486 86.7981 6.8267 86.8685 6.8267H89.3401C89.4105 6.8267 89.4668 6.85486 89.5091 6.91119C89.5654 6.95344 89.5936 7.00977 89.5936 7.08019V18.9521C89.5936 19.0225 89.6288 19.0577 89.6992 19.0577H96.6069C96.6773 19.0577 96.7336 19.0859 96.7759 19.1422C96.8322 19.1845 96.8604 19.2408 96.8604 19.3112V21.3603C96.8604 21.4307 96.8322 21.4941 96.7759 21.5504C96.7336 21.5926 96.6773 21.6138 96.6069 21.6138H86.8685ZM103.774 21.7828C102.647 21.7828 101.661 21.6067 100.816 21.2547C99.9713 20.8885 99.3164 20.3745 98.8517 19.7126C98.401 19.0366 98.1757 18.255 98.1757 17.3678V16.903C98.1757 16.8326 98.1968 16.7763 98.2391 16.734C98.2954 16.6777 98.3588 16.6495 98.4292 16.6495H100.837C100.908 16.6495 100.964 16.6777 101.006 16.734C101.063 16.7763 101.091 16.8326 101.091 16.903V17.2199C101.091 17.7832 101.351 18.262 101.872 18.6564C102.394 19.0366 103.098 19.2267 103.985 19.2267C104.731 19.2267 105.288 19.0718 105.654 18.762C106.02 18.4381 106.203 18.0437 106.203 17.579C106.203 17.241 106.09 16.9594 105.865 16.734C105.64 16.4946 105.33 16.2904 104.936 16.1214C104.555 15.9384 103.943 15.6919 103.098 15.3821C102.154 15.0582 101.351 14.7272 100.69 14.3892C100.042 14.0512 99.4925 13.5935 99.0418 13.0161C98.6052 12.4247 98.3869 11.6994 98.3869 10.8403C98.3869 9.99535 98.6052 9.256 99.0418 8.62227C99.4784 7.98854 100.084 7.50268 100.858 7.16469C101.633 6.8267 102.527 6.6577 103.541 6.6577C104.612 6.6577 105.562 6.84782 106.393 7.22806C107.238 7.6083 107.893 8.14345 108.358 8.83351C108.836 9.50949 109.076 10.2981 109.076 11.1994V11.5163C109.076 11.5867 109.048 11.6501 108.991 11.7064C108.949 11.7487 108.893 11.7698 108.822 11.7698H106.393C106.323 11.7698 106.259 11.7487 106.203 11.7064C106.161 11.6501 106.14 11.5867 106.14 11.5163V11.3473C106.14 10.7558 105.893 10.2559 105.4 9.84748C104.921 9.425 104.26 9.21375 103.415 9.21375C102.753 9.21375 102.232 9.35458 101.851 9.63624C101.485 9.9179 101.302 10.3052 101.302 10.7981C101.302 11.1502 101.408 11.4459 101.619 11.6853C101.844 11.9247 102.168 12.143 102.591 12.3402C103.027 12.5232 103.696 12.7767 104.598 13.1006C105.597 13.4668 106.379 13.7907 106.942 14.0724C107.52 14.354 108.034 14.7765 108.484 15.3398C108.949 15.8891 109.182 16.6073 109.182 17.4945C109.182 18.8183 108.696 19.8675 107.724 20.642C106.752 21.4025 105.435 21.7828 103.774 21.7828ZM120.862 21.7828C119.777 21.7828 118.82 21.5715 117.989 21.149C117.172 20.7265 116.531 20.1351 116.066 19.3746C115.616 18.6 115.39 17.7128 115.39 16.7129V7.08019C115.39 7.00977 115.412 6.95344 115.454 6.91119C115.51 6.85486 115.574 6.8267 115.644 6.8267H118.115C118.186 6.8267 118.242 6.85486 118.284 6.91119C118.341 6.95344 118.369 7.00977 118.369 7.08019V16.734C118.369 17.4804 118.594 18.086 119.045 18.5507C119.51 19.0014 120.115 19.2267 120.862 19.2267C121.608 19.2267 122.207 19.0014 122.657 18.5507C123.122 18.086 123.354 17.4804 123.354 16.734V7.08019C123.354 7.00977 123.375 6.95344 123.418 6.91119C123.474 6.85486 123.537 6.8267 123.608 6.8267H126.079C126.15 6.8267 126.206 6.85486 126.248 6.91119C126.305 6.95344 126.333 7.00977 126.333 7.08019V16.7129C126.333 17.7128 126.1 18.6 125.636 19.3746C125.185 20.1351 124.544 20.7265 123.713 21.149C122.897 21.5715 121.946 21.7828 120.862 21.7828ZM134.886 6.80557C135.816 6.80557 136.633 6.99569 137.337 7.37593C138.041 7.75617 138.583 8.29836 138.963 9.00251C139.358 9.69257 139.555 10.4883 139.555 11.3896C139.555 12.2768 139.351 13.0584 138.942 13.7344C138.548 14.4104 137.985 14.9385 137.252 15.3187C136.534 15.6849 135.703 15.8679 134.76 15.8679H131.76C131.689 15.8679 131.654 15.9031 131.654 15.9736V21.3603C131.654 21.4307 131.626 21.4941 131.57 21.5504C131.527 21.5926 131.471 21.6138 131.401 21.6138H128.929C128.859 21.6138 128.795 21.5926 128.739 21.5504C128.697 21.4941 128.676 21.4307 128.676 21.3603V7.05906C128.676 6.98865 128.697 6.93232 128.739 6.89007C128.795 6.83374 128.859 6.80557 128.929 6.80557H134.886ZM134.443 13.4809C135.09 13.4809 135.612 13.2978 136.006 12.9316C136.4 12.5514 136.597 12.0585 136.597 11.4529C136.597 10.8333 136.4 10.3333 136.006 9.95311C135.612 9.57287 135.09 9.38275 134.443 9.38275H131.76C131.689 9.38275 131.654 9.41795 131.654 9.48837V13.3753C131.654 13.4457 131.689 13.4809 131.76 13.4809H134.443Z"/><path fill="#FFFFFF" d="M11.5652 7.22949C11.1054 7.22949 10.6644 7.41216 10.3393 7.73729C10.0141 8.06242 9.83148 8.50339 9.83148 8.9632V28.6235C9.83148 29.0833 10.0142 29.5244 10.3393 29.8496C10.6645 30.1747 11.1056 30.3574 11.5654 30.3574C12.0253 30.3574 12.4664 30.1747 12.7915 29.8496C13.1167 29.5244 13.2994 29.0833 13.2994 28.6235V8.9632C13.2994 8.73548 13.2545 8.51 13.1674 8.29962C13.0802 8.08925 12.9525 7.8981 12.7914 7.7371C12.6304 7.57611 12.4392 7.44841 12.2288 7.36131C12.0184 7.27421 11.7929 7.22943 11.5652 7.22949Z"/><path fill="#FFFFFF" d="M19.6588 17.6094H16.382C15.9218 17.6094 15.4805 17.7922 15.155 18.1176C14.8296 18.443 14.6468 18.8844 14.6468 19.3446C14.6468 19.8048 14.8296 20.2461 15.155 20.5716C15.4805 20.897 15.9218 21.0798 16.382 21.0798H19.6588C20.119 21.0798 20.5604 20.897 20.8858 20.5716C21.2112 20.2461 21.3941 19.8048 21.3941 19.3446C21.3941 18.8844 21.2112 18.443 20.8858 18.1176C20.5604 17.7922 20.119 17.6094 19.6588 17.6094Z"/><path fill="#FFFFFF" d="M6.74774 22.3879H3.46945C3.00924 22.3879 2.56787 22.5707 2.24246 22.8962C1.91704 23.2216 1.73422 23.663 1.73422 24.1232C1.73422 24.5834 1.91704 25.0247 2.24246 25.3501C2.56787 25.6756 3.00924 25.8584 3.46945 25.8584H6.74573C7.20594 25.8584 7.64729 25.6756 7.97271 25.3501C8.29813 25.0247 8.48095 24.5834 8.48095 24.1232C8.48095 23.663 8.29813 23.2216 7.97271 22.8962C7.64729 22.5707 7.20594 22.3879 6.74573 22.3879H6.74774Z"/><path fill="#FFFFFF" d="M12.4322 4.2284V3.47045H21.3955C21.8557 3.47045 22.2971 3.28762 22.6225 2.96221C22.9479 2.63679 23.1307 2.19543 23.1307 1.73522C23.1307 1.27502 22.9479 0.833658 22.6225 0.508242C22.2971 0.182825 21.8557 5.48611e-08 21.3955 0H1.73522C1.27501 5.48611e-08 0.83365 0.182825 0.508234 0.508242C0.182818 0.833658 0 1.27502 0 1.73522C0 2.19543 0.182818 2.63679 0.508234 2.96221C0.83365 3.28762 1.27501 3.47045 1.73522 3.47045H10.6985V4.2284C9.59075 4.4321 8.58924 5.01711 7.8677 5.88197C7.14616 6.74683 6.75011 7.83697 6.74824 8.96329V15.5169C6.74824 15.7468 6.83959 15.9674 7.00221 16.13C7.16482 16.2926 7.38537 16.384 7.61535 16.384C7.84532 16.384 8.06587 16.2926 8.22848 16.13C8.3911 15.9674 8.48245 15.7468 8.48245 15.5169V8.96329C8.48245 8.14558 8.80729 7.36137 9.38549 6.78317C9.96369 6.20496 10.7479 5.88013 11.5656 5.88013C12.3833 5.88013 13.1675 6.20496 13.7457 6.78317C14.3239 7.36137 14.6488 8.14558 14.6488 8.96329V15.5169C14.6542 15.7432 14.7479 15.9583 14.9099 16.1165C15.0719 16.2746 15.2893 16.3631 15.5156 16.3631C15.742 16.3631 15.9593 16.2746 16.1213 16.1165C16.2833 15.9583 16.377 15.7432 16.3825 15.5169V8.96329C16.3806 7.83697 15.9845 6.74683 15.263 5.88197C14.5415 5.01711 13.54 4.4321 12.4322 4.2284Z"/></svg>